# xmcd
#
# Track frame offsets:
#	150
#	12819
#	26553
#	39802
#	51354
#	68288
#	81815
#	95911
#	108187
#	121294
#	132893
#	148974
#	161996
#	173350
#	186952
#	200874
#	214798
#	226649
#	242868
#	257137
#	272136
#	284810
#	299022
#
# Disc length: 4181 seconds
#
# Revision: 1
# Processed by: cddbd v1.5.1PL0 Copyright (c) Steve Scherf et al.
# Submitted via: audiograbber 1.83.01
#
DISCID=5a105317
DTITLE=VICENTE FERNANDEZ - COLECCION DE UN IDOLO
DYEAR=1900
DGENRE=
TTITLE0=VICENTE FERNANDEZ - CAMINOS DE GUANAJUATO
TTITLE1=VICENTE FERNANDEZ - MARIA MARIA
TTITLE2=VICENTE FERNANDEZ - QUE SUERTE LA MIA
TTITLE3=VICENTE FERNANDEZ - TENIAS RAZON
TTITLE4=VICENTE FERNANDEZ - UN MUNDO RARO
TTITLE5=VICENTE FERNANDEZ - QUE BONITA QUE BONITA
TTITLE6=VICENTE FERNANDEZ - ARRULLO DE DIOS
TTITLE7=VICENTE FERNANDEZ - YO QUIERO SER TU MARIDO
TTITLE8=VICENTE FERNANDEZ - ESTA NOCHE
TTITLE9=VICENTE FERNANDEZ - NOMAS DEJE DE QUERERTE
TTITLE10=VICENTE FERNANDEZ - VAMONOS
TTITLE11=VICENTE FERNANDEZ - LA DIFERIENCIA
TTITLE12=VICENTE FERNANDEZ - ALMA DE ACERO
TTITLE13=VICENTE FERNANDEZ - Y TU ME VAS A RECORDAR
TTITLE14=VICENTE FERNANDEZ - TU RECUERDO
TTITLE15=VICENTE FERNANDEZ - SIN QUE LO SEPAS TU
TTITLE16=VICENTE FERNANDEZ - VIEJOS AMIGOS
TTITLE17=VICENTE FERNANDEZ - LA REFINERA
TTITLE18=VICENTE FERNANDEZ - HAY UN MOMENTO
TTITLE19=VICENTE FERNANDEZ - NO DEBIO VOLVER
TTITLE20=VICENTE FERNANDEZ - CUANDO LOS AÑOS PASEN
TTITLE21=VICENTE FERNANDEZ - DOLOR 
TTITLE22=VICENTE FERNANDEZ - YO
EXTD=
EXTT0=
EXTT1=
EXTT2=
EXTT3=
EXTT4=
EXTT5=
EXTT6=
EXTT7=
EXTT8=
EXTT9=
EXTT10=
EXTT11=
EXTT12=
EXTT13=
EXTT14=
EXTT15=
EXTT16=
EXTT17=
EXTT18=
EXTT19=
EXTT20=
EXTT21=
EXTT22=
PLAYORDER=
